<svg width="2059" height="37" viewBox="0 0 2059 37" fill="none" xmlns="http://www.w3.org/2000/svg">
<g clip-path="url(#clip0_5_622)">
<path d="M1455.12 37H1426.05L1447.28 1.31413e-06L1461.85 25.3872L1455.12 37Z" fill="#9D8F65"/>
<path d="M1199.82 25.3703L1185.27 3.48687e-06H1214.38L1199.82 25.3703Z" fill="#F2CCD0"/>
<path d="M1228.93 25.3703L1214.38 3.48687e-06H1243.49L1228.93 25.3703Z" fill="#F2CCD0"/>
<path d="M1258.04 25.3703L1243.49 3.48687e-06H1272.6L1258.04 25.3703Z" fill="#F2CCD0"/>
<path d="M1287.16 25.3703L1272.6 3.48687e-06H1301.71L1287.16 25.3703Z" fill="#F2CCD0"/>
<path d="M1316.27 25.3703L1301.71 3.48687e-06H1330.82L1316.27 25.3703Z" fill="#F2CCD0"/>
<path d="M1345.38 25.3703L1330.82 3.48687e-06H1359.93L1345.38 25.3703Z" fill="#F2CCD0"/>
<path d="M1374.49 25.3703L1359.93 3.48687e-06H1389.04L1374.49 25.3703Z" fill="#F2CCD0"/>
<path d="M1403.6 25.3703L1389.04 3.48687e-06H1418.15L1403.6 25.3703Z" fill="#F2CCD0"/>
<path d="M1432.73 25.3872L1418.17 0.0169363H1447.28L1432.73 25.3872Z" fill="#F2CCD0"/>
<path d="M1461.85 25.3872L1447.29 0.0169363H1476.4L1461.85 25.3872Z" fill="#F2CCD0"/>
<path d="M1185.27 1.31413e-06L1206.49 37H1164.04L1185.27 1.31413e-06Z" fill="#9D8F65"/>
<path d="M1178.56 11.6805L1193.09 37H1164.04L1178.56 11.6805Z" fill="#29B09F"/>
<path d="M1193.09 37L1199.82 25.3703L1178.56 11.6805L1193.09 37Z" fill="#5B3F58"/>
<path d="M1243.49 1.31413e-06L1264.72 37H1222.26L1243.49 1.31413e-06Z" fill="#9D8F65"/>
<path d="M1251.31 37L1258.04 25.3703L1236.79 11.6805L1251.31 37Z" fill="#5B3F58"/>
<path d="M1272.6 1.31413e-06L1293.83 37H1251.37L1272.6 1.31413e-06Z" fill="#9D8F65"/>
<path d="M1265.9 11.6805L1280.42 37H1251.37L1265.9 11.6805Z" fill="#29B09F"/>
<path d="M1280.42 37L1287.16 25.3703L1265.9 11.6805L1280.42 37Z" fill="#5B3F58"/>
<path d="M1301.71 1.31413e-06L1322.94 37H1280.48L1301.71 1.31413e-06Z" fill="#9D8F65"/>
<path d="M1295.01 11.6805L1309.54 37H1280.48L1295.01 11.6805Z" fill="#29B09F"/>
<path d="M1309.54 37L1316.27 25.3703L1295.01 11.6805L1309.54 37Z" fill="#5B3F58"/>
<path d="M1330.82 1.31413e-06L1352.05 37H1309.59L1330.82 1.31413e-06Z" fill="#9D8F65"/>
<path d="M1324.12 11.6805L1338.65 37H1309.59L1324.12 11.6805Z" fill="#29B09F"/>
<path d="M1338.65 37L1345.38 25.3703L1324.12 11.6805L1338.65 37Z" fill="#5B3F58"/>
<path d="M1359.93 1.31413e-06L1381.16 37H1338.71L1359.93 1.31413e-06Z" fill="#9D8F65"/>
<path d="M1353.23 11.6805L1367.76 37H1338.71L1353.23 11.6805Z" fill="#29B09F"/>
<path d="M1367.76 37L1374.49 25.3703L1353.23 11.6805L1367.76 37Z" fill="#5B3F58"/>
<path d="M1389.04 1.31413e-06L1410.27 37H1367.82L1389.04 1.31413e-06Z" fill="#9D8F65"/>
<path d="M1382.34 11.6805L1396.87 37H1367.82L1382.34 11.6805Z" fill="#29B09F"/>
<path d="M1396.87 37L1403.6 25.3703L1382.34 11.6805L1396.87 37Z" fill="#5B3F58"/>
<path d="M1418.15 1.31413e-06L1439.38 37H1396.93L1418.15 1.31413e-06Z" fill="#9D8F65"/>
<path d="M1411.45 11.6805L1425.98 37H1396.93L1411.45 11.6805Z" fill="#29B09F"/>
<path d="M1440.6 11.6805L1455.12 37H1426.07L1440.6 11.6805Z" fill="#29B09F"/>
<path d="M1425.99 37L1432.72 25.3703L1411.46 11.6805L1425.99 37Z" fill="#5B3F58"/>
<path d="M1455.12 37L1461.85 25.3872L1440.59 11.6805L1455.12 37Z" fill="#5B3F58"/>
<path d="M1214.38 1.31413e-06L1235.61 37H1193.15L1214.38 1.31413e-06Z" fill="#9D8F65"/>
<path d="M1207.68 11.6805L1222.2 37H1193.15L1207.68 11.6805Z" fill="#29B09F"/>
<path d="M1222.2 37L1228.93 25.3703L1207.68 11.6805L1222.2 37Z" fill="#5B3F58"/>
<path d="M1236.79 11.6805L1251.31 37H1222.26L1236.79 11.6805Z" fill="#29B09F"/>
</g>
<g clip-path="url(#clip1_5_622)">
<path d="M1746.08 37H1717.01L1738.24 1.31413e-06L1752.81 25.3872L1746.08 37Z" fill="#9D8F65"/>
<path d="M1490.78 25.3703L1476.23 3.48687e-06H1505.34L1490.78 25.3703Z" fill="#F2CCD0"/>
<path d="M1519.9 25.3703L1505.34 3.48687e-06H1534.45L1519.9 25.3703Z" fill="#F2CCD0"/>
<path d="M1549.01 25.3703L1534.45 3.48687e-06H1563.56L1549.01 25.3703Z" fill="#F2CCD0"/>
<path d="M1578.12 25.3703L1563.56 3.48687e-06H1592.67L1578.12 25.3703Z" fill="#F2CCD0"/>
<path d="M1607.23 25.3703L1592.67 3.48687e-06H1621.78L1607.23 25.3703Z" fill="#F2CCD0"/>
<path d="M1636.34 25.3703L1621.78 3.48687e-06H1650.9L1636.34 25.3703Z" fill="#F2CCD0"/>
<path d="M1665.45 25.3703L1650.9 3.48687e-06H1680.01L1665.45 25.3703Z" fill="#F2CCD0"/>
<path d="M1694.56 25.3703L1680.01 3.48687e-06H1709.12L1694.56 25.3703Z" fill="#F2CCD0"/>
<path d="M1723.69 25.3872L1709.13 0.0169363H1738.24L1723.69 25.3872Z" fill="#F2CCD0"/>
<path d="M1752.81 25.3872L1738.26 0.0169363H1767.37L1752.81 25.3872Z" fill="#F2CCD0"/>
<path d="M1476.23 1.31413e-06L1497.45 37H1455L1476.23 1.31413e-06Z" fill="#9D8F65"/>
<path d="M1469.52 11.6805L1484.05 37H1455L1469.52 11.6805Z" fill="#29B09F"/>
<path d="M1484.05 37L1490.78 25.3703L1469.52 11.6805L1484.05 37Z" fill="#5B3F58"/>
<path d="M1534.45 1.31413e-06L1555.68 37H1513.22L1534.45 1.31413e-06Z" fill="#9D8F65"/>
<path d="M1542.28 37L1549.01 25.3703L1527.75 11.6805L1542.28 37Z" fill="#5B3F58"/>
<path d="M1563.56 1.31413e-06L1584.79 37H1542.33L1563.56 1.31413e-06Z" fill="#9D8F65"/>
<path d="M1556.86 11.6805L1571.39 37H1542.33L1556.86 11.6805Z" fill="#29B09F"/>
<path d="M1571.38 37L1578.12 25.3703L1556.86 11.6805L1571.38 37Z" fill="#5B3F58"/>
<path d="M1592.67 1.31413e-06L1613.9 37H1571.45L1592.67 1.31413e-06Z" fill="#9D8F65"/>
<path d="M1585.97 11.6805L1600.5 37H1571.45L1585.97 11.6805Z" fill="#29B09F"/>
<path d="M1600.5 37L1607.23 25.3703L1585.97 11.6805L1600.5 37Z" fill="#5B3F58"/>
<path d="M1621.78 1.31413e-06L1643.01 37H1600.56L1621.78 1.31413e-06Z" fill="#9D8F65"/>
<path d="M1615.08 11.6805L1629.61 37H1600.56L1615.08 11.6805Z" fill="#29B09F"/>
<path d="M1629.61 37L1636.34 25.3703L1615.08 11.6805L1629.61 37Z" fill="#5B3F58"/>
<path d="M1650.9 1.31413e-06L1672.12 37H1629.67L1650.9 1.31413e-06Z" fill="#9D8F65"/>
<path d="M1644.19 11.6805L1658.72 37H1629.67L1644.19 11.6805Z" fill="#29B09F"/>
<path d="M1658.72 37L1665.45 25.3703L1644.19 11.6805L1658.72 37Z" fill="#5B3F58"/>
<path d="M1680.01 1.31413e-06L1701.23 37H1658.78L1680.01 1.31413e-06Z" fill="#9D8F65"/>
<path d="M1673.3 11.6805L1687.83 37H1658.78L1673.3 11.6805Z" fill="#29B09F"/>
<path d="M1687.83 37L1694.56 25.3703L1673.3 11.6805L1687.83 37Z" fill="#5B3F58"/>
<path d="M1709.12 1.31413e-06L1730.34 37H1687.89L1709.12 1.31413e-06Z" fill="#9D8F65"/>
<path d="M1702.42 11.6805L1716.94 37H1687.89L1702.42 11.6805Z" fill="#29B09F"/>
<path d="M1731.56 11.6805L1746.08 37H1717.03L1731.56 11.6805Z" fill="#29B09F"/>
<path d="M1716.95 37L1723.68 25.3703L1702.43 11.6805L1716.95 37Z" fill="#5B3F58"/>
<path d="M1746.08 37L1752.81 25.3872L1731.55 11.6805L1746.08 37Z" fill="#5B3F58"/>
<path d="M1505.34 1.31413e-06L1526.57 37H1484.11L1505.34 1.31413e-06Z" fill="#9D8F65"/>
<path d="M1498.64 11.6805L1513.17 37H1484.11L1498.64 11.6805Z" fill="#29B09F"/>
<path d="M1513.17 37L1519.9 25.3703L1498.64 11.6805L1513.17 37Z" fill="#5B3F58"/>
<path d="M1527.75 11.6805L1542.28 37H1513.22L1527.75 11.6805Z" fill="#29B09F"/>
</g>
<g clip-path="url(#clip2_5_622)">
<path d="M2037.05 37H2007.98L2029.2 1.31413e-06L2043.77 25.3872L2037.05 37Z" fill="#9D8F65"/>
<path d="M1781.74 25.3703L1767.19 3.48687e-06H1796.3L1781.74 25.3703Z" fill="#F2CCD0"/>
<path d="M1810.86 25.3703L1796.3 3.48687e-06H1825.41L1810.86 25.3703Z" fill="#F2CCD0"/>
<path d="M1839.97 25.3703L1825.41 3.48687e-06H1854.52L1839.97 25.3703Z" fill="#F2CCD0"/>
<path d="M1869.08 25.3703L1854.52 3.48687e-06H1883.63L1869.08 25.3703Z" fill="#F2CCD0"/>
<path d="M1898.19 25.3703L1883.63 3.48687e-06H1912.74L1898.19 25.3703Z" fill="#F2CCD0"/>
<path d="M1927.3 25.3703L1912.74 3.48687e-06H1941.86L1927.3 25.3703Z" fill="#F2CCD0"/>
<path d="M1956.41 25.3703L1941.86 3.48687e-06H1970.97L1956.41 25.3703Z" fill="#F2CCD0"/>
<path d="M1985.52 25.3703L1970.97 3.48687e-06H2000.08L1985.52 25.3703Z" fill="#F2CCD0"/>
<path d="M2014.65 25.3872L2000.09 0.0169363H2029.2L2014.65 25.3872Z" fill="#F2CCD0"/>
<path d="M2043.77 25.3872L2029.22 0.0169363H2058.33L2043.77 25.3872Z" fill="#F2CCD0"/>
<path d="M1767.19 1.31413e-06L1788.42 37H1745.96L1767.19 1.31413e-06Z" fill="#9D8F65"/>
<path d="M1760.49 11.6805L1775.01 37H1745.96L1760.49 11.6805Z" fill="#29B09F"/>
<path d="M1775.01 37L1781.74 25.3703L1760.49 11.6805L1775.01 37Z" fill="#5B3F58"/>
<path d="M1825.41 1.31413e-06L1846.64 37H1804.18L1825.41 1.31413e-06Z" fill="#9D8F65"/>
<path d="M1833.24 37L1839.97 25.3703L1818.71 11.6805L1833.24 37Z" fill="#5B3F58"/>
<path d="M1854.52 1.31413e-06L1875.75 37H1833.29L1854.52 1.31413e-06Z" fill="#9D8F65"/>
<path d="M1847.82 11.6805L1862.35 37H1833.29L1847.82 11.6805Z" fill="#29B09F"/>
<path d="M1862.35 37L1869.08 25.3703L1847.82 11.6805L1862.35 37Z" fill="#5B3F58"/>
<path d="M1883.63 1.31413e-06L1904.86 37H1862.41L1883.63 1.31413e-06Z" fill="#9D8F65"/>
<path d="M1876.93 11.6805L1891.46 37H1862.41L1876.93 11.6805Z" fill="#29B09F"/>
<path d="M1891.46 37L1898.19 25.3703L1876.93 11.6805L1891.46 37Z" fill="#5B3F58"/>
<path d="M1912.74 1.31413e-06L1933.98 37H1891.52L1912.74 1.31413e-06Z" fill="#9D8F65"/>
<path d="M1906.05 11.6805L1920.57 37H1891.52L1906.05 11.6805Z" fill="#29B09F"/>
<path d="M1920.57 37L1927.3 25.3703L1906.04 11.6805L1920.57 37Z" fill="#5B3F58"/>
<path d="M1941.86 1.31413e-06L1963.08 37H1920.63L1941.86 1.31413e-06Z" fill="#9D8F65"/>
<path d="M1935.16 11.6805L1949.68 37H1920.63L1935.16 11.6805Z" fill="#29B09F"/>
<path d="M1949.68 37L1956.41 25.3703L1935.15 11.6805L1949.68 37Z" fill="#5B3F58"/>
<path d="M1970.97 1.31413e-06L1992.19 37H1949.74L1970.97 1.31413e-06Z" fill="#9D8F65"/>
<path d="M1964.26 11.6805L1978.79 37H1949.74L1964.26 11.6805Z" fill="#29B09F"/>
<path d="M1978.79 37L1985.52 25.3703L1964.26 11.6805L1978.79 37Z" fill="#5B3F58"/>
<path d="M2000.08 1.31413e-06L2021.3 37H1978.85L2000.08 1.31413e-06Z" fill="#9D8F65"/>
<path d="M1993.38 11.6805L2007.9 37H1978.85L1993.38 11.6805Z" fill="#29B09F"/>
<path d="M2022.52 11.6805L2037.05 37H2007.99L2022.52 11.6805Z" fill="#29B09F"/>
<path d="M2007.92 37L2014.65 25.3703L1993.39 11.6805L2007.92 37Z" fill="#5B3F58"/>
<path d="M2037.04 37L2043.77 25.3872L2022.51 11.6805L2037.04 37Z" fill="#5B3F58"/>
<path d="M1796.3 1.31413e-06L1817.53 37H1775.07L1796.3 1.31413e-06Z" fill="#9D8F65"/>
<path d="M1789.6 11.6805L1804.13 37H1775.07L1789.6 11.6805Z" fill="#29B09F"/>
<path d="M1804.13 37L1810.86 25.3703L1789.6 11.6805L1804.13 37Z" fill="#5B3F58"/>
<path d="M1818.71 11.6805L1833.24 37H1804.18L1818.71 11.6805Z" fill="#29B09F"/>
</g>
<g clip-path="url(#clip3_5_622)">
<path d="M1164.1 37H1135.03L1156.26 1.31413e-06L1170.83 25.3872L1164.1 37Z" fill="#9D8F65"/>
<path d="M908.801 25.3703L894.247 3.48687e-06H923.356L908.801 25.3703Z" fill="#F2CCD0"/>
<path d="M937.915 25.3703L923.36 3.48687e-06H952.47L937.915 25.3703Z" fill="#F2CCD0"/>
<path d="M967.025 25.3703L952.47 3.48687e-06H981.579L967.025 25.3703Z" fill="#F2CCD0"/>
<path d="M996.138 25.3703L981.58 3.48687e-06H1010.69L996.138 25.3703Z" fill="#F2CCD0"/>
<path d="M1025.25 25.3703L1010.69 3.48687e-06H1039.8L1025.25 25.3703Z" fill="#F2CCD0"/>
<path d="M1054.36 25.3703L1039.8 3.48687e-06H1068.92L1054.36 25.3703Z" fill="#F2CCD0"/>
<path d="M1083.47 25.3703L1068.92 3.48687e-06H1098.03L1083.47 25.3703Z" fill="#F2CCD0"/>
<path d="M1112.58 25.3703L1098.03 3.48687e-06H1127.14L1112.58 25.3703Z" fill="#F2CCD0"/>
<path d="M1141.71 25.3872L1127.15 0.0169363H1156.26L1141.71 25.3872Z" fill="#F2CCD0"/>
<path d="M1170.83 25.3872L1156.28 0.0169363H1185.39L1170.83 25.3872Z" fill="#F2CCD0"/>
<path d="M894.247 1.31413e-06L915.474 37H873.02L894.247 1.31413e-06Z" fill="#9D8F65"/>
<path d="M887.544 11.6805L902.072 37H873.02L887.544 11.6805Z" fill="#29B09F"/>
<path d="M902.072 37L908.801 25.3703L887.544 11.6805L902.072 37Z" fill="#5B3F58"/>
<path d="M952.469 1.31413e-06L973.697 37H931.242L952.469 1.31413e-06Z" fill="#9D8F65"/>
<path d="M960.295 37L967.025 25.3703L945.767 11.6805L960.295 37Z" fill="#5B3F58"/>
<path d="M981.579 1.31413e-06L1002.81 37H960.352L981.579 1.31413e-06Z" fill="#9D8F65"/>
<path d="M974.88 11.6805L989.405 37H960.352L974.88 11.6805Z" fill="#29B09F"/>
<path d="M989.405 37L996.137 25.3703L974.88 11.6805L989.405 37Z" fill="#5B3F58"/>
<path d="M1010.69 1.31413e-06L1031.92 37H989.465L1010.69 1.31413e-06Z" fill="#9D8F65"/>
<path d="M1003.99 11.6805L1018.52 37H989.465L1003.99 11.6805Z" fill="#29B09F"/>
<path d="M1018.52 37L1025.25 25.3703L1003.99 11.6805L1018.52 37Z" fill="#5B3F58"/>
<path d="M1039.8 1.31413e-06L1061.03 37H1018.58L1039.8 1.31413e-06Z" fill="#9D8F65"/>
<path d="M1033.1 11.6805L1047.63 37H1018.58L1033.1 11.6805Z" fill="#29B09F"/>
<path d="M1047.63 37L1054.36 25.3703L1033.1 11.6805L1047.63 37Z" fill="#5B3F58"/>
<path d="M1068.92 1.31413e-06L1090.14 37H1047.69L1068.92 1.31413e-06Z" fill="#9D8F65"/>
<path d="M1062.21 11.6805L1076.74 37H1047.69L1062.21 11.6805Z" fill="#29B09F"/>
<path d="M1076.74 37L1083.47 25.3703L1062.21 11.6805L1076.74 37Z" fill="#5B3F58"/>
<path d="M1098.03 1.31413e-06L1119.25 37H1076.8L1098.03 1.31413e-06Z" fill="#9D8F65"/>
<path d="M1091.32 11.6805L1105.85 37H1076.8L1091.32 11.6805Z" fill="#29B09F"/>
<path d="M1105.85 37L1112.58 25.3703L1091.32 11.6805L1105.85 37Z" fill="#5B3F58"/>
<path d="M1127.13 1.31413e-06L1148.36 37H1105.91L1127.13 1.31413e-06Z" fill="#9D8F65"/>
<path d="M1120.44 11.6805L1134.96 37H1105.91L1120.44 11.6805Z" fill="#29B09F"/>
<path d="M1149.58 11.6805L1164.1 37H1135.05L1149.58 11.6805Z" fill="#29B09F"/>
<path d="M1134.97 37L1141.7 25.3703L1120.45 11.6805L1134.97 37Z" fill="#5B3F58"/>
<path d="M1164.1 37L1170.83 25.3872L1149.57 11.6805L1164.1 37Z" fill="#5B3F58"/>
<path d="M923.36 1.31413e-06L944.587 37H902.133L923.36 1.31413e-06Z" fill="#9D8F65"/>
<path d="M916.657 11.6805L931.185 37H902.133L916.657 11.6805Z" fill="#29B09F"/>
<path d="M931.185 37L937.915 25.3703L916.657 11.6805L931.185 37Z" fill="#5B3F58"/>
<path d="M945.767 11.6805L960.295 37H931.242L945.767 11.6805Z" fill="#29B09F"/>
</g>
<g clip-path="url(#clip4_5_622)">
<path d="M873.084 37H844.015L865.242 1.31413e-06L879.81 25.3872L873.084 37Z" fill="#9D8F65"/>
<path d="M617.782 25.3703L603.228 3.48687e-06H632.337L617.782 25.3703Z" fill="#F2CCD0"/>
<path d="M646.895 25.3703L632.34 3.48687e-06H661.45L646.895 25.3703Z" fill="#F2CCD0"/>
<path d="M676.005 25.3703L661.45 3.48687e-06H690.56L676.005 25.3703Z" fill="#F2CCD0"/>
<path d="M705.118 25.3703L690.56 3.48687e-06H719.673L705.118 25.3703Z" fill="#F2CCD0"/>
<path d="M734.228 25.3703L719.673 3.48687e-06H748.783L734.228 25.3703Z" fill="#F2CCD0"/>
<path d="M763.341 25.3703L748.783 3.48687e-06H777.896L763.341 25.3703Z" fill="#F2CCD0"/>
<path d="M792.451 25.3703L777.896 3.48687e-06H807.006L792.451 25.3703Z" fill="#F2CCD0"/>
<path d="M821.561 25.3703L807.006 3.48687e-06H836.116L821.561 25.3703Z" fill="#F2CCD0"/>
<path d="M850.687 25.3872L836.132 0.0169363H865.242L850.687 25.3872Z" fill="#F2CCD0"/>
<path d="M879.811 25.3872L865.256 0.0169363H894.366L879.811 25.3872Z" fill="#F2CCD0"/>
<path d="M603.227 1.31413e-06L624.455 37H582L603.227 1.31413e-06Z" fill="#9D8F65"/>
<path d="M596.525 11.6805L611.053 37H582L596.525 11.6805Z" fill="#29B09F"/>
<path d="M611.052 37L617.782 25.3703L596.524 11.6805L611.052 37Z" fill="#5B3F58"/>
<path d="M661.45 1.31413e-06L682.678 37H640.223L661.45 1.31413e-06Z" fill="#9D8F65"/>
<path d="M669.276 37L676.005 25.3703L654.748 11.6805L669.276 37Z" fill="#5B3F58"/>
<path d="M690.56 1.31413e-06L711.787 37H669.333L690.56 1.31413e-06Z" fill="#9D8F65"/>
<path d="M683.861 11.6805L698.385 37H669.333L683.861 11.6805Z" fill="#29B09F"/>
<path d="M698.385 37L705.118 25.3703L683.86 11.6805L698.385 37Z" fill="#5B3F58"/>
<path d="M719.673 1.31413e-06L740.9 37H698.446L719.673 1.31413e-06Z" fill="#9D8F65"/>
<path d="M712.97 11.6805L727.498 37H698.446L712.97 11.6805Z" fill="#29B09F"/>
<path d="M727.498 37L734.228 25.3703L712.97 11.6805L727.498 37Z" fill="#5B3F58"/>
<path d="M748.783 1.31413e-06L770.014 37H727.556L748.783 1.31413e-06Z" fill="#9D8F65"/>
<path d="M742.084 11.6805L756.608 37H727.556L742.084 11.6805Z" fill="#29B09F"/>
<path d="M756.608 37L763.341 25.3703L742.083 11.6805L756.608 37Z" fill="#5B3F58"/>
<path d="M777.896 1.31413e-06L799.124 37H756.669L777.896 1.31413e-06Z" fill="#9D8F65"/>
<path d="M771.194 11.6805L785.718 37H756.669L771.194 11.6805Z" fill="#29B09F"/>
<path d="M785.721 37L792.451 25.3703L771.193 11.6805L785.721 37Z" fill="#5B3F58"/>
<path d="M807.006 1.31413e-06L828.233 37H785.778L807.006 1.31413e-06Z" fill="#9D8F65"/>
<path d="M800.303 11.6805L814.831 37H785.778L800.303 11.6805Z" fill="#29B09F"/>
<path d="M814.831 37L821.56 25.3703L800.303 11.6805L814.831 37Z" fill="#5B3F58"/>
<path d="M836.115 1.31413e-06L857.343 37H814.888L836.115 1.31413e-06Z" fill="#9D8F65"/>
<path d="M829.416 11.6805L843.941 37H814.888L829.416 11.6805Z" fill="#29B09F"/>
<path d="M858.56 11.6805L873.084 37H844.032L858.56 11.6805Z" fill="#29B09F"/>
<path d="M843.954 37L850.684 25.3703L829.426 11.6805L843.954 37Z" fill="#5B3F58"/>
<path d="M873.081 37L879.81 25.3872L858.553 11.6805L873.081 37Z" fill="#5B3F58"/>
<path d="M632.341 1.31413e-06L653.568 37H611.113L632.341 1.31413e-06Z" fill="#9D8F65"/>
<path d="M625.638 11.6805L640.166 37H611.113L625.638 11.6805Z" fill="#29B09F"/>
<path d="M640.166 37L646.895 25.3703L625.638 11.6805L640.166 37Z" fill="#5B3F58"/>
<path d="M654.748 11.6805L669.276 37H640.223L654.748 11.6805Z" fill="#29B09F"/>
</g>
<g clip-path="url(#clip5_5_622)">
<path d="M582.084 37H553.015L574.242 1.31413e-06L588.81 25.3872L582.084 37Z" fill="#9D8F65"/>
<path d="M326.782 25.3703L312.228 3.48687e-06H341.337L326.782 25.3703Z" fill="#F2CCD0"/>
<path d="M355.895 25.3703L341.34 3.48687e-06H370.45L355.895 25.3703Z" fill="#F2CCD0"/>
<path d="M385.005 25.3703L370.45 3.48687e-06H399.56L385.005 25.3703Z" fill="#F2CCD0"/>
<path d="M414.118 25.3703L399.56 3.48687e-06H428.673L414.118 25.3703Z" fill="#F2CCD0"/>
<path d="M443.228 25.3703L428.673 3.48687e-06H457.783L443.228 25.3703Z" fill="#F2CCD0"/>
<path d="M472.341 25.3703L457.783 3.48687e-06H486.896L472.341 25.3703Z" fill="#F2CCD0"/>
<path d="M501.451 25.3703L486.896 3.48687e-06H516.006L501.451 25.3703Z" fill="#F2CCD0"/>
<path d="M530.561 25.3703L516.006 3.48687e-06H545.116L530.561 25.3703Z" fill="#F2CCD0"/>
<path d="M559.687 25.3872L545.132 0.0169363H574.242L559.687 25.3872Z" fill="#F2CCD0"/>
<path d="M588.811 25.3872L574.256 0.0169363H603.366L588.811 25.3872Z" fill="#F2CCD0"/>
<path d="M312.227 1.31413e-06L333.455 37H291L312.227 1.31413e-06Z" fill="#9D8F65"/>
<path d="M305.525 11.6805L320.053 37H291L305.525 11.6805Z" fill="#29B09F"/>
<path d="M320.052 37L326.782 25.3703L305.524 11.6805L320.052 37Z" fill="#5B3F58"/>
<path d="M370.45 1.31413e-06L391.678 37H349.223L370.45 1.31413e-06Z" fill="#9D8F65"/>
<path d="M378.276 37L385.005 25.3703L363.748 11.6805L378.276 37Z" fill="#5B3F58"/>
<path d="M399.56 1.31413e-06L420.787 37H378.333L399.56 1.31413e-06Z" fill="#9D8F65"/>
<path d="M392.861 11.6805L407.385 37H378.333L392.861 11.6805Z" fill="#29B09F"/>
<path d="M407.385 37L414.118 25.3703L392.86 11.6805L407.385 37Z" fill="#5B3F58"/>
<path d="M428.673 1.31413e-06L449.9 37H407.446L428.673 1.31413e-06Z" fill="#9D8F65"/>
<path d="M421.97 11.6805L436.498 37H407.446L421.97 11.6805Z" fill="#29B09F"/>
<path d="M436.498 37L443.228 25.3703L421.97 11.6805L436.498 37Z" fill="#5B3F58"/>
<path d="M457.783 1.31413e-06L479.014 37H436.556L457.783 1.31413e-06Z" fill="#9D8F65"/>
<path d="M451.084 11.6805L465.608 37H436.556L451.084 11.6805Z" fill="#29B09F"/>
<path d="M465.608 37L472.341 25.3703L451.083 11.6805L465.608 37Z" fill="#5B3F58"/>
<path d="M486.896 1.31413e-06L508.124 37H465.669L486.896 1.31413e-06Z" fill="#9D8F65"/>
<path d="M480.194 11.6805L494.718 37H465.669L480.194 11.6805Z" fill="#29B09F"/>
<path d="M494.721 37L501.451 25.3703L480.193 11.6805L494.721 37Z" fill="#5B3F58"/>
<path d="M516.006 1.31413e-06L537.233 37H494.778L516.006 1.31413e-06Z" fill="#9D8F65"/>
<path d="M509.303 11.6805L523.831 37H494.778L509.303 11.6805Z" fill="#29B09F"/>
<path d="M523.831 37L530.56 25.3703L509.303 11.6805L523.831 37Z" fill="#5B3F58"/>
<path d="M545.115 1.31413e-06L566.343 37H523.888L545.115 1.31413e-06Z" fill="#9D8F65"/>
<path d="M538.416 11.6805L552.941 37H523.888L538.416 11.6805Z" fill="#29B09F"/>
<path d="M567.56 11.6805L582.084 37H553.032L567.56 11.6805Z" fill="#29B09F"/>
<path d="M552.954 37L559.684 25.3703L538.426 11.6805L552.954 37Z" fill="#5B3F58"/>
<path d="M582.081 37L588.81 25.3872L567.553 11.6805L582.081 37Z" fill="#5B3F58"/>
<path d="M341.341 1.31413e-06L362.568 37H320.113L341.341 1.31413e-06Z" fill="#9D8F65"/>
<path d="M334.638 11.6805L349.166 37H320.113L334.638 11.6805Z" fill="#29B09F"/>
<path d="M349.166 37L355.895 25.3703L334.638 11.6805L349.166 37Z" fill="#5B3F58"/>
<path d="M363.748 11.6805L378.276 37H349.223L363.748 11.6805Z" fill="#29B09F"/>
</g>
<g clip-path="url(#clip6_5_622)">
<path d="M291.084 37H262.015L283.242 1.31413e-06L297.81 25.3872L291.084 37Z" fill="#9D8F65"/>
<path d="M35.7824 25.3703L21.2275 3.48687e-06H50.3373L35.7824 25.3703Z" fill="#F2CCD0"/>
<path d="M64.8952 25.3703L50.3403 3.48687e-06H79.4501L64.8952 25.3703Z" fill="#F2CCD0"/>
<path d="M94.0051 25.3703L79.4502 3.48687e-06H108.56L94.0051 25.3703Z" fill="#F2CCD0"/>
<path d="M123.118 25.3703L108.56 3.48687e-06H137.673L123.118 25.3703Z" fill="#F2CCD0"/>
<path d="M152.228 25.3703L137.673 3.48687e-06H166.783L152.228 25.3703Z" fill="#F2CCD0"/>
<path d="M181.341 25.3703L166.783 3.48687e-06H195.896L181.341 25.3703Z" fill="#F2CCD0"/>
<path d="M210.451 25.3703L195.896 3.48687e-06H225.006L210.451 25.3703Z" fill="#F2CCD0"/>
<path d="M239.561 25.3703L225.006 3.48687e-06H254.116L239.561 25.3703Z" fill="#F2CCD0"/>
<path d="M268.687 25.3872L254.132 0.0169363H283.242L268.687 25.3872Z" fill="#F2CCD0"/>
<path d="M297.811 25.3872L283.256 0.0169363H312.366L297.811 25.3872Z" fill="#F2CCD0"/>
<path d="M21.2273 1.31413e-06L42.4546 37H0L21.2273 1.31413e-06Z" fill="#9D8F65"/>
<path d="M14.5246 11.6805L29.0526 37H0L14.5246 11.6805Z" fill="#29B09F"/>
<path d="M29.0524 37L35.7819 25.3703L14.5244 11.6805L29.0524 37Z" fill="#5B3F58"/>
<path d="M79.4504 1.31413e-06L100.678 37H58.2231L79.4504 1.31413e-06Z" fill="#9D8F65"/>
<path d="M87.2756 37L94.0051 25.3703L72.7476 11.6805L87.2756 37Z" fill="#5B3F58"/>
<path d="M108.56 1.31413e-06L129.787 37H87.3325L108.56 1.31413e-06Z" fill="#9D8F65"/>
<path d="M101.861 11.6805L116.385 37H87.3325L101.861 11.6805Z" fill="#29B09F"/>
<path d="M116.385 37L123.118 25.3703L101.86 11.6805L116.385 37Z" fill="#5B3F58"/>
<path d="M137.673 1.31413e-06L158.9 37H116.446L137.673 1.31413e-06Z" fill="#9D8F65"/>
<path d="M130.97 11.6805L145.498 37H116.446L130.97 11.6805Z" fill="#29B09F"/>
<path d="M145.498 37L152.228 25.3703L130.97 11.6805L145.498 37Z" fill="#5B3F58"/>
<path d="M166.783 1.31413e-06L188.014 37H145.556L166.783 1.31413e-06Z" fill="#9D8F65"/>
<path d="M160.084 11.6805L174.608 37H145.556L160.084 11.6805Z" fill="#29B09F"/>
<path d="M174.608 37L181.341 25.3703L160.083 11.6805L174.608 37Z" fill="#5B3F58"/>
<path d="M195.896 1.31413e-06L217.124 37H174.669L195.896 1.31413e-06Z" fill="#9D8F65"/>
<path d="M189.194 11.6805L203.718 37H174.669L189.194 11.6805Z" fill="#29B09F"/>
<path d="M203.721 37L210.451 25.3703L189.193 11.6805L203.721 37Z" fill="#5B3F58"/>
<path d="M225.006 1.31413e-06L246.233 37H203.778L225.006 1.31413e-06Z" fill="#9D8F65"/>
<path d="M218.303 11.6805L232.831 37H203.778L218.303 11.6805Z" fill="#29B09F"/>
<path d="M232.831 37L239.56 25.3703L218.303 11.6805L232.831 37Z" fill="#5B3F58"/>
<path d="M254.115 1.31413e-06L275.343 37H232.888L254.115 1.31413e-06Z" fill="#9D8F65"/>
<path d="M247.416 11.6805L261.941 37H232.888L247.416 11.6805Z" fill="#29B09F"/>
<path d="M276.56 11.6805L291.084 37H262.032L276.56 11.6805Z" fill="#29B09F"/>
<path d="M261.954 37L268.684 25.3703L247.426 11.6805L261.954 37Z" fill="#5B3F58"/>
<path d="M291.081 37L297.81 25.3872L276.553 11.6805L291.081 37Z" fill="#5B3F58"/>
<path d="M50.3406 1.31413e-06L71.5678 37H29.1133L50.3406 1.31413e-06Z" fill="#9D8F65"/>
<path d="M43.6379 11.6805L58.1659 37H29.1133L43.6379 11.6805Z" fill="#29B09F"/>
<path d="M58.1657 37L64.8952 25.3703L43.6377 11.6805L58.1657 37Z" fill="#5B3F58"/>
<path d="M72.7478 11.6805L87.2758 37H58.2231L72.7478 11.6805Z" fill="#29B09F"/>
</g>
<defs>
<clipPath id="clip0_5_622">
<rect width="312.365" height="37" fill="white" transform="matrix(1 0 0 -1 1164.04 37)"/>
</clipPath>
<clipPath id="clip1_5_622">
<rect width="312.365" height="37" fill="white" transform="matrix(1 0 0 -1 1455 37)"/>
</clipPath>
<clipPath id="clip2_5_622">
<rect width="312.365" height="37" fill="white" transform="matrix(1 0 0 -1 1745.96 37)"/>
</clipPath>
<clipPath id="clip3_5_622">
<rect width="312.365" height="37" fill="white" transform="matrix(1 0 0 -1 873.02 37)"/>
</clipPath>
<clipPath id="clip4_5_622">
<rect width="312.365" height="37" fill="white" transform="matrix(1 0 0 -1 582 37)"/>
</clipPath>
<clipPath id="clip5_5_622">
<rect width="312.365" height="37" fill="white" transform="matrix(1 0 0 -1 291 37)"/>
</clipPath>
<clipPath id="clip6_5_622">
<rect width="312.365" height="37" fill="white" transform="matrix(1 0 0 -1 0 37)"/>
</clipPath>
</defs>
</svg>
