<svg width="2059" height="37" viewBox="0 0 2059 37" fill="none" xmlns="http://www.w3.org/2000/svg">
<g clip-path="url(#clip0_5_815)">
<path d="M1455.12 0H1426.05L1447.28 37L1461.85 11.6128L1455.12 0Z" fill="#9D8F65"/>
<path d="M1199.82 11.6297L1185.27 37H1214.38L1199.82 11.6297Z" fill="#F2CCD0"/>
<path d="M1228.93 11.6297L1214.38 37H1243.49L1228.93 11.6297Z" fill="#F2CCD0"/>
<path d="M1258.04 11.6297L1243.49 37H1272.6L1258.04 11.6297Z" fill="#F2CCD0"/>
<path d="M1287.16 11.6297L1272.6 37H1301.71L1287.16 11.6297Z" fill="#F2CCD0"/>
<path d="M1316.27 11.6297L1301.71 37H1330.82L1316.27 11.6297Z" fill="#F2CCD0"/>
<path d="M1345.38 11.6297L1330.82 37H1359.93L1345.38 11.6297Z" fill="#F2CCD0"/>
<path d="M1374.49 11.6297L1359.93 37H1389.04L1374.49 11.6297Z" fill="#F2CCD0"/>
<path d="M1403.6 11.6297L1389.04 37H1418.15L1403.6 11.6297Z" fill="#F2CCD0"/>
<path d="M1432.73 11.6128L1418.17 36.9831H1447.28L1432.73 11.6128Z" fill="#F2CCD0"/>
<path d="M1461.85 11.6128L1447.29 36.9831H1476.4L1461.85 11.6128Z" fill="#F2CCD0"/>
<path d="M1185.27 37L1206.49 0H1164.04L1185.27 37Z" fill="#9D8F65"/>
<path d="M1178.56 25.3195L1193.09 0H1164.04L1178.56 25.3195Z" fill="#29B09F"/>
<path d="M1193.09 0L1199.82 11.6297L1178.56 25.3195L1193.09 0Z" fill="#5B3F58"/>
<path d="M1243.49 37L1264.72 0H1222.26L1243.49 37Z" fill="#9D8F65"/>
<path d="M1251.31 0L1258.04 11.6297L1236.79 25.3195L1251.31 0Z" fill="#5B3F58"/>
<path d="M1272.6 37L1293.83 0H1251.37L1272.6 37Z" fill="#9D8F65"/>
<path d="M1265.9 25.3195L1280.42 0H1251.37L1265.9 25.3195Z" fill="#29B09F"/>
<path d="M1280.42 0L1287.16 11.6297L1265.9 25.3195L1280.42 0Z" fill="#5B3F58"/>
<path d="M1301.71 37L1322.94 0H1280.48L1301.71 37Z" fill="#9D8F65"/>
<path d="M1295.01 25.3195L1309.54 0H1280.48L1295.01 25.3195Z" fill="#29B09F"/>
<path d="M1309.54 0L1316.27 11.6297L1295.01 25.3195L1309.54 0Z" fill="#5B3F58"/>
<path d="M1330.82 37L1352.05 0H1309.59L1330.82 37Z" fill="#9D8F65"/>
<path d="M1324.12 25.3195L1338.65 0H1309.59L1324.12 25.3195Z" fill="#29B09F"/>
<path d="M1338.65 0L1345.38 11.6297L1324.12 25.3195L1338.65 0Z" fill="#5B3F58"/>
<path d="M1359.93 37L1381.16 0H1338.71L1359.93 37Z" fill="#9D8F65"/>
<path d="M1353.23 25.3195L1367.76 0H1338.71L1353.23 25.3195Z" fill="#29B09F"/>
<path d="M1367.76 0L1374.49 11.6297L1353.23 25.3195L1367.76 0Z" fill="#5B3F58"/>
<path d="M1389.04 37L1410.27 0H1367.82L1389.04 37Z" fill="#9D8F65"/>
<path d="M1382.34 25.3195L1396.87 0H1367.82L1382.34 25.3195Z" fill="#29B09F"/>
<path d="M1396.87 0L1403.6 11.6297L1382.34 25.3195L1396.87 0Z" fill="#5B3F58"/>
<path d="M1418.15 37L1439.38 0H1396.93L1418.15 37Z" fill="#9D8F65"/>
<path d="M1411.45 25.3195L1425.98 0H1396.93L1411.45 25.3195Z" fill="#29B09F"/>
<path d="M1440.6 25.3195L1455.12 0H1426.07L1440.6 25.3195Z" fill="#29B09F"/>
<path d="M1425.99 0L1432.72 11.6297L1411.46 25.3195L1425.99 0Z" fill="#5B3F58"/>
<path d="M1455.12 0L1461.85 11.6128L1440.59 25.3195L1455.12 0Z" fill="#5B3F58"/>
<path d="M1214.38 37L1235.61 0H1193.15L1214.38 37Z" fill="#9D8F65"/>
<path d="M1207.68 25.3195L1222.2 0H1193.15L1207.68 25.3195Z" fill="#29B09F"/>
<path d="M1222.2 0L1228.93 11.6297L1207.68 25.3195L1222.2 0Z" fill="#5B3F58"/>
<path d="M1236.79 25.3195L1251.31 0H1222.26L1236.79 25.3195Z" fill="#29B09F"/>
</g>
<g clip-path="url(#clip1_5_815)">
<path d="M1746.08 0H1717.01L1738.24 37L1752.81 11.6128L1746.08 0Z" fill="#9D8F65"/>
<path d="M1490.78 11.6297L1476.23 37H1505.34L1490.78 11.6297Z" fill="#F2CCD0"/>
<path d="M1519.9 11.6297L1505.34 37H1534.45L1519.9 11.6297Z" fill="#F2CCD0"/>
<path d="M1549.01 11.6297L1534.45 37H1563.56L1549.01 11.6297Z" fill="#F2CCD0"/>
<path d="M1578.12 11.6297L1563.56 37H1592.67L1578.12 11.6297Z" fill="#F2CCD0"/>
<path d="M1607.23 11.6297L1592.67 37H1621.78L1607.23 11.6297Z" fill="#F2CCD0"/>
<path d="M1636.34 11.6297L1621.78 37H1650.9L1636.34 11.6297Z" fill="#F2CCD0"/>
<path d="M1665.45 11.6297L1650.9 37H1680.01L1665.45 11.6297Z" fill="#F2CCD0"/>
<path d="M1694.56 11.6297L1680.01 37H1709.12L1694.56 11.6297Z" fill="#F2CCD0"/>
<path d="M1723.69 11.6128L1709.13 36.9831H1738.24L1723.69 11.6128Z" fill="#F2CCD0"/>
<path d="M1752.81 11.6128L1738.26 36.9831H1767.37L1752.81 11.6128Z" fill="#F2CCD0"/>
<path d="M1476.23 37L1497.45 0H1455L1476.23 37Z" fill="#9D8F65"/>
<path d="M1469.52 25.3195L1484.05 0H1455L1469.52 25.3195Z" fill="#29B09F"/>
<path d="M1484.05 0L1490.78 11.6297L1469.52 25.3195L1484.05 0Z" fill="#5B3F58"/>
<path d="M1534.45 37L1555.68 0H1513.22L1534.45 37Z" fill="#9D8F65"/>
<path d="M1542.28 0L1549.01 11.6297L1527.75 25.3195L1542.28 0Z" fill="#5B3F58"/>
<path d="M1563.56 37L1584.79 0H1542.33L1563.56 37Z" fill="#9D8F65"/>
<path d="M1556.86 25.3195L1571.39 0H1542.33L1556.86 25.3195Z" fill="#29B09F"/>
<path d="M1571.38 0L1578.12 11.6297L1556.86 25.3195L1571.38 0Z" fill="#5B3F58"/>
<path d="M1592.67 37L1613.9 0H1571.45L1592.67 37Z" fill="#9D8F65"/>
<path d="M1585.97 25.3195L1600.5 0H1571.45L1585.97 25.3195Z" fill="#29B09F"/>
<path d="M1600.5 0L1607.23 11.6297L1585.97 25.3195L1600.5 0Z" fill="#5B3F58"/>
<path d="M1621.78 37L1643.01 0H1600.56L1621.78 37Z" fill="#9D8F65"/>
<path d="M1615.08 25.3195L1629.61 0H1600.56L1615.08 25.3195Z" fill="#29B09F"/>
<path d="M1629.61 0L1636.34 11.6297L1615.08 25.3195L1629.61 0Z" fill="#5B3F58"/>
<path d="M1650.9 37L1672.12 0H1629.67L1650.9 37Z" fill="#9D8F65"/>
<path d="M1644.19 25.3195L1658.72 0H1629.67L1644.19 25.3195Z" fill="#29B09F"/>
<path d="M1658.72 0L1665.45 11.6297L1644.19 25.3195L1658.72 0Z" fill="#5B3F58"/>
<path d="M1680.01 37L1701.23 0H1658.78L1680.01 37Z" fill="#9D8F65"/>
<path d="M1673.3 25.3195L1687.83 0H1658.78L1673.3 25.3195Z" fill="#29B09F"/>
<path d="M1687.83 0L1694.56 11.6297L1673.3 25.3195L1687.83 0Z" fill="#5B3F58"/>
<path d="M1709.12 37L1730.34 0H1687.89L1709.12 37Z" fill="#9D8F65"/>
<path d="M1702.42 25.3195L1716.94 0H1687.89L1702.42 25.3195Z" fill="#29B09F"/>
<path d="M1731.56 25.3195L1746.08 0H1717.03L1731.56 25.3195Z" fill="#29B09F"/>
<path d="M1716.95 0L1723.68 11.6297L1702.43 25.3195L1716.95 0Z" fill="#5B3F58"/>
<path d="M1746.08 0L1752.81 11.6128L1731.55 25.3195L1746.08 0Z" fill="#5B3F58"/>
<path d="M1505.34 37L1526.57 0H1484.11L1505.34 37Z" fill="#9D8F65"/>
<path d="M1498.64 25.3195L1513.17 0H1484.11L1498.64 25.3195Z" fill="#29B09F"/>
<path d="M1513.17 0L1519.9 11.6297L1498.64 25.3195L1513.17 0Z" fill="#5B3F58"/>
<path d="M1527.75 25.3195L1542.28 0H1513.22L1527.75 25.3195Z" fill="#29B09F"/>
</g>
<g clip-path="url(#clip2_5_815)">
<path d="M2037.08 0H2008.01L2029.24 37L2043.81 11.6128L2037.08 0Z" fill="#9D8F65"/>
<path d="M1781.78 11.6297L1767.23 37H1796.34L1781.78 11.6297Z" fill="#F2CCD0"/>
<path d="M1810.9 11.6297L1796.34 37H1825.45L1810.9 11.6297Z" fill="#F2CCD0"/>
<path d="M1840.01 11.6297L1825.45 37H1854.56L1840.01 11.6297Z" fill="#F2CCD0"/>
<path d="M1869.12 11.6297L1854.56 37H1883.67L1869.12 11.6297Z" fill="#F2CCD0"/>
<path d="M1898.23 11.6297L1883.67 37H1912.78L1898.23 11.6297Z" fill="#F2CCD0"/>
<path d="M1927.34 11.6297L1912.78 37H1941.9L1927.34 11.6297Z" fill="#F2CCD0"/>
<path d="M1956.45 11.6297L1941.9 37H1971.01L1956.45 11.6297Z" fill="#F2CCD0"/>
<path d="M1985.56 11.6297L1971.01 37H2000.12L1985.56 11.6297Z" fill="#F2CCD0"/>
<path d="M2014.69 11.6128L2000.13 36.9831H2029.24L2014.69 11.6128Z" fill="#F2CCD0"/>
<path d="M2043.81 11.6128L2029.26 36.9831H2058.37L2043.81 11.6128Z" fill="#F2CCD0"/>
<path d="M1767.23 37L1788.45 0H1746L1767.23 37Z" fill="#9D8F65"/>
<path d="M1760.52 25.3195L1775.05 0H1746L1760.52 25.3195Z" fill="#29B09F"/>
<path d="M1775.05 0L1781.78 11.6297L1760.52 25.3195L1775.05 0Z" fill="#5B3F58"/>
<path d="M1825.45 37L1846.68 0H1804.22L1825.45 37Z" fill="#9D8F65"/>
<path d="M1833.28 0L1840.01 11.6297L1818.75 25.3195L1833.28 0Z" fill="#5B3F58"/>
<path d="M1854.56 37L1875.79 0H1833.33L1854.56 37Z" fill="#9D8F65"/>
<path d="M1847.86 25.3195L1862.39 0H1833.33L1847.86 25.3195Z" fill="#29B09F"/>
<path d="M1862.38 0L1869.12 11.6297L1847.86 25.3195L1862.38 0Z" fill="#5B3F58"/>
<path d="M1883.67 37L1904.9 0H1862.45L1883.67 37Z" fill="#9D8F65"/>
<path d="M1876.97 25.3195L1891.5 0H1862.45L1876.97 25.3195Z" fill="#29B09F"/>
<path d="M1891.5 0L1898.23 11.6297L1876.97 25.3195L1891.5 0Z" fill="#5B3F58"/>
<path d="M1912.78 37L1934.01 0H1891.56L1912.78 37Z" fill="#9D8F65"/>
<path d="M1906.08 25.3195L1920.61 0H1891.56L1906.08 25.3195Z" fill="#29B09F"/>
<path d="M1920.61 0L1927.34 11.6297L1906.08 25.3195L1920.61 0Z" fill="#5B3F58"/>
<path d="M1941.9 37L1963.12 0H1920.67L1941.9 37Z" fill="#9D8F65"/>
<path d="M1935.19 25.3195L1949.72 0H1920.67L1935.19 25.3195Z" fill="#29B09F"/>
<path d="M1949.72 0L1956.45 11.6297L1935.19 25.3195L1949.72 0Z" fill="#5B3F58"/>
<path d="M1971.01 37L1992.23 0H1949.78L1971.01 37Z" fill="#9D8F65"/>
<path d="M1964.3 25.3195L1978.83 0H1949.78L1964.3 25.3195Z" fill="#29B09F"/>
<path d="M1978.83 0L1985.56 11.6297L1964.3 25.3195L1978.83 0Z" fill="#5B3F58"/>
<path d="M2000.12 37L2021.34 0H1978.89L2000.12 37Z" fill="#9D8F65"/>
<path d="M1993.42 25.3195L2007.94 0H1978.89L1993.42 25.3195Z" fill="#29B09F"/>
<path d="M2022.56 25.3195L2037.08 0H2008.03L2022.56 25.3195Z" fill="#29B09F"/>
<path d="M2007.95 0L2014.68 11.6297L1993.43 25.3195L2007.95 0Z" fill="#5B3F58"/>
<path d="M2037.08 0L2043.81 11.6128L2022.55 25.3195L2037.08 0Z" fill="#5B3F58"/>
<path d="M1796.34 37L1817.57 0H1775.11L1796.34 37Z" fill="#9D8F65"/>
<path d="M1789.64 25.3195L1804.17 0H1775.11L1789.64 25.3195Z" fill="#29B09F"/>
<path d="M1804.17 0L1810.9 11.6297L1789.64 25.3195L1804.17 0Z" fill="#5B3F58"/>
<path d="M1818.75 25.3195L1833.28 0H1804.22L1818.75 25.3195Z" fill="#29B09F"/>
</g>
<g clip-path="url(#clip3_5_815)">
<path d="M1164.1 0H1135.03L1156.26 37L1170.83 11.6128L1164.1 0Z" fill="#9D8F65"/>
<path d="M908.801 11.6297L894.247 37H923.356L908.801 11.6297Z" fill="#F2CCD0"/>
<path d="M937.915 11.6297L923.36 37H952.47L937.915 11.6297Z" fill="#F2CCD0"/>
<path d="M967.025 11.6297L952.47 37H981.579L967.025 11.6297Z" fill="#F2CCD0"/>
<path d="M996.138 11.6297L981.58 37H1010.69L996.138 11.6297Z" fill="#F2CCD0"/>
<path d="M1025.25 11.6297L1010.69 37H1039.8L1025.25 11.6297Z" fill="#F2CCD0"/>
<path d="M1054.36 11.6297L1039.8 37H1068.92L1054.36 11.6297Z" fill="#F2CCD0"/>
<path d="M1083.47 11.6297L1068.92 37H1098.03L1083.47 11.6297Z" fill="#F2CCD0"/>
<path d="M1112.58 11.6297L1098.03 37H1127.14L1112.58 11.6297Z" fill="#F2CCD0"/>
<path d="M1141.71 11.6128L1127.15 36.9831H1156.26L1141.71 11.6128Z" fill="#F2CCD0"/>
<path d="M1170.83 11.6128L1156.28 36.9831H1185.39L1170.83 11.6128Z" fill="#F2CCD0"/>
<path d="M894.247 37L915.474 0H873.02L894.247 37Z" fill="#9D8F65"/>
<path d="M887.544 25.3195L902.072 0H873.02L887.544 25.3195Z" fill="#29B09F"/>
<path d="M902.072 0L908.801 11.6297L887.544 25.3195L902.072 0Z" fill="#5B3F58"/>
<path d="M952.469 37L973.697 0H931.242L952.469 37Z" fill="#9D8F65"/>
<path d="M960.295 0L967.025 11.6297L945.767 25.3195L960.295 0Z" fill="#5B3F58"/>
<path d="M981.579 37L1002.81 0H960.352L981.579 37Z" fill="#9D8F65"/>
<path d="M974.88 25.3195L989.405 0H960.352L974.88 25.3195Z" fill="#29B09F"/>
<path d="M989.405 0L996.137 11.6297L974.88 25.3195L989.405 0Z" fill="#5B3F58"/>
<path d="M1010.69 37L1031.92 0H989.465L1010.69 37Z" fill="#9D8F65"/>
<path d="M1003.99 25.3195L1018.52 0H989.465L1003.99 25.3195Z" fill="#29B09F"/>
<path d="M1018.52 0L1025.25 11.6297L1003.99 25.3195L1018.52 0Z" fill="#5B3F58"/>
<path d="M1039.8 37L1061.03 0H1018.58L1039.8 37Z" fill="#9D8F65"/>
<path d="M1033.1 25.3195L1047.63 0H1018.58L1033.1 25.3195Z" fill="#29B09F"/>
<path d="M1047.63 0L1054.36 11.6297L1033.1 25.3195L1047.63 0Z" fill="#5B3F58"/>
<path d="M1068.92 37L1090.14 0H1047.69L1068.92 37Z" fill="#9D8F65"/>
<path d="M1062.21 25.3195L1076.74 0H1047.69L1062.21 25.3195Z" fill="#29B09F"/>
<path d="M1076.74 0L1083.47 11.6297L1062.21 25.3195L1076.74 0Z" fill="#5B3F58"/>
<path d="M1098.03 37L1119.25 0H1076.8L1098.03 37Z" fill="#9D8F65"/>
<path d="M1091.32 25.3195L1105.85 0H1076.8L1091.32 25.3195Z" fill="#29B09F"/>
<path d="M1105.85 0L1112.58 11.6297L1091.32 25.3195L1105.85 0Z" fill="#5B3F58"/>
<path d="M1127.13 37L1148.36 0H1105.91L1127.13 37Z" fill="#9D8F65"/>
<path d="M1120.44 25.3195L1134.96 0H1105.91L1120.44 25.3195Z" fill="#29B09F"/>
<path d="M1149.58 25.3195L1164.1 0H1135.05L1149.58 25.3195Z" fill="#29B09F"/>
<path d="M1134.97 0L1141.7 11.6297L1120.45 25.3195L1134.97 0Z" fill="#5B3F58"/>
<path d="M1164.1 0L1170.83 11.6128L1149.57 25.3195L1164.1 0Z" fill="#5B3F58"/>
<path d="M923.36 37L944.587 0H902.133L923.36 37Z" fill="#9D8F65"/>
<path d="M916.657 25.3195L931.185 0H902.133L916.657 25.3195Z" fill="#29B09F"/>
<path d="M931.185 0L937.915 11.6297L916.657 25.3195L931.185 0Z" fill="#5B3F58"/>
<path d="M945.767 25.3195L960.295 0H931.242L945.767 25.3195Z" fill="#29B09F"/>
</g>
<g clip-path="url(#clip4_5_815)">
<path d="M873.084 0H844.015L865.242 37L879.81 11.6128L873.084 0Z" fill="#9D8F65"/>
<path d="M617.782 11.6297L603.228 37H632.337L617.782 11.6297Z" fill="#F2CCD0"/>
<path d="M646.895 11.6297L632.34 37H661.45L646.895 11.6297Z" fill="#F2CCD0"/>
<path d="M676.005 11.6297L661.45 37H690.56L676.005 11.6297Z" fill="#F2CCD0"/>
<path d="M705.118 11.6297L690.56 37H719.673L705.118 11.6297Z" fill="#F2CCD0"/>
<path d="M734.228 11.6297L719.673 37H748.783L734.228 11.6297Z" fill="#F2CCD0"/>
<path d="M763.341 11.6297L748.783 37H777.896L763.341 11.6297Z" fill="#F2CCD0"/>
<path d="M792.451 11.6297L777.896 37H807.006L792.451 11.6297Z" fill="#F2CCD0"/>
<path d="M821.561 11.6297L807.006 37H836.116L821.561 11.6297Z" fill="#F2CCD0"/>
<path d="M850.687 11.6128L836.132 36.9831H865.242L850.687 11.6128Z" fill="#F2CCD0"/>
<path d="M879.811 11.6128L865.256 36.9831H894.366L879.811 11.6128Z" fill="#F2CCD0"/>
<path d="M603.227 37L624.455 0H582L603.227 37Z" fill="#9D8F65"/>
<path d="M596.525 25.3195L611.053 0H582L596.525 25.3195Z" fill="#29B09F"/>
<path d="M611.052 0L617.782 11.6297L596.524 25.3195L611.052 0Z" fill="#5B3F58"/>
<path d="M661.45 37L682.678 0H640.223L661.45 37Z" fill="#9D8F65"/>
<path d="M669.276 0L676.005 11.6297L654.748 25.3195L669.276 0Z" fill="#5B3F58"/>
<path d="M690.56 37L711.787 0H669.333L690.56 37Z" fill="#9D8F65"/>
<path d="M683.861 25.3195L698.385 0H669.333L683.861 25.3195Z" fill="#29B09F"/>
<path d="M698.385 0L705.118 11.6297L683.86 25.3195L698.385 0Z" fill="#5B3F58"/>
<path d="M719.673 37L740.9 0H698.446L719.673 37Z" fill="#9D8F65"/>
<path d="M712.97 25.3195L727.498 0H698.446L712.97 25.3195Z" fill="#29B09F"/>
<path d="M727.498 0L734.228 11.6297L712.97 25.3195L727.498 0Z" fill="#5B3F58"/>
<path d="M748.783 37L770.014 0H727.556L748.783 37Z" fill="#9D8F65"/>
<path d="M742.084 25.3195L756.608 0H727.556L742.084 25.3195Z" fill="#29B09F"/>
<path d="M756.608 0L763.341 11.6297L742.083 25.3195L756.608 0Z" fill="#5B3F58"/>
<path d="M777.896 37L799.124 0H756.669L777.896 37Z" fill="#9D8F65"/>
<path d="M771.194 25.3195L785.718 0H756.669L771.194 25.3195Z" fill="#29B09F"/>
<path d="M785.721 0L792.451 11.6297L771.193 25.3195L785.721 0Z" fill="#5B3F58"/>
<path d="M807.006 37L828.233 0H785.778L807.006 37Z" fill="#9D8F65"/>
<path d="M800.303 25.3195L814.831 0H785.778L800.303 25.3195Z" fill="#29B09F"/>
<path d="M814.831 0L821.56 11.6297L800.303 25.3195L814.831 0Z" fill="#5B3F58"/>
<path d="M836.115 37L857.343 0H814.888L836.115 37Z" fill="#9D8F65"/>
<path d="M829.416 25.3195L843.941 0H814.888L829.416 25.3195Z" fill="#29B09F"/>
<path d="M858.56 25.3195L873.084 0H844.032L858.56 25.3195Z" fill="#29B09F"/>
<path d="M843.954 0L850.684 11.6297L829.426 25.3195L843.954 0Z" fill="#5B3F58"/>
<path d="M873.081 0L879.81 11.6128L858.553 25.3195L873.081 0Z" fill="#5B3F58"/>
<path d="M632.341 37L653.568 0H611.113L632.341 37Z" fill="#9D8F65"/>
<path d="M625.638 25.3195L640.166 0H611.113L625.638 25.3195Z" fill="#29B09F"/>
<path d="M640.166 0L646.895 11.6297L625.638 25.3195L640.166 0Z" fill="#5B3F58"/>
<path d="M654.748 25.3195L669.276 0H640.223L654.748 25.3195Z" fill="#29B09F"/>
</g>
<g clip-path="url(#clip5_5_815)">
<path d="M582.084 0H553.015L574.242 37L588.81 11.6128L582.084 0Z" fill="#9D8F65"/>
<path d="M326.782 11.6297L312.228 37H341.337L326.782 11.6297Z" fill="#F2CCD0"/>
<path d="M355.895 11.6297L341.34 37H370.45L355.895 11.6297Z" fill="#F2CCD0"/>
<path d="M385.005 11.6297L370.45 37H399.56L385.005 11.6297Z" fill="#F2CCD0"/>
<path d="M414.118 11.6297L399.56 37H428.673L414.118 11.6297Z" fill="#F2CCD0"/>
<path d="M443.228 11.6297L428.673 37H457.783L443.228 11.6297Z" fill="#F2CCD0"/>
<path d="M472.341 11.6297L457.783 37H486.896L472.341 11.6297Z" fill="#F2CCD0"/>
<path d="M501.451 11.6297L486.896 37H516.006L501.451 11.6297Z" fill="#F2CCD0"/>
<path d="M530.561 11.6297L516.006 37H545.116L530.561 11.6297Z" fill="#F2CCD0"/>
<path d="M559.687 11.6128L545.132 36.9831H574.242L559.687 11.6128Z" fill="#F2CCD0"/>
<path d="M588.811 11.6128L574.256 36.9831H603.366L588.811 11.6128Z" fill="#F2CCD0"/>
<path d="M312.227 37L333.455 0H291L312.227 37Z" fill="#9D8F65"/>
<path d="M305.525 25.3195L320.053 0H291L305.525 25.3195Z" fill="#29B09F"/>
<path d="M320.052 0L326.782 11.6297L305.524 25.3195L320.052 0Z" fill="#5B3F58"/>
<path d="M370.45 37L391.678 0H349.223L370.45 37Z" fill="#9D8F65"/>
<path d="M378.276 0L385.005 11.6297L363.748 25.3195L378.276 0Z" fill="#5B3F58"/>
<path d="M399.56 37L420.787 0H378.333L399.56 37Z" fill="#9D8F65"/>
<path d="M392.861 25.3195L407.385 0H378.333L392.861 25.3195Z" fill="#29B09F"/>
<path d="M407.385 0L414.118 11.6297L392.86 25.3195L407.385 0Z" fill="#5B3F58"/>
<path d="M428.673 37L449.9 0H407.446L428.673 37Z" fill="#9D8F65"/>
<path d="M421.97 25.3195L436.498 0H407.446L421.97 25.3195Z" fill="#29B09F"/>
<path d="M436.498 0L443.228 11.6297L421.97 25.3195L436.498 0Z" fill="#5B3F58"/>
<path d="M457.783 37L479.014 0H436.556L457.783 37Z" fill="#9D8F65"/>
<path d="M451.084 25.3195L465.608 0H436.556L451.084 25.3195Z" fill="#29B09F"/>
<path d="M465.608 0L472.341 11.6297L451.083 25.3195L465.608 0Z" fill="#5B3F58"/>
<path d="M486.896 37L508.124 0H465.669L486.896 37Z" fill="#9D8F65"/>
<path d="M480.194 25.3195L494.718 0H465.669L480.194 25.3195Z" fill="#29B09F"/>
<path d="M494.721 0L501.451 11.6297L480.193 25.3195L494.721 0Z" fill="#5B3F58"/>
<path d="M516.006 37L537.233 0H494.778L516.006 37Z" fill="#9D8F65"/>
<path d="M509.303 25.3195L523.831 0H494.778L509.303 25.3195Z" fill="#29B09F"/>
<path d="M523.831 0L530.56 11.6297L509.303 25.3195L523.831 0Z" fill="#5B3F58"/>
<path d="M545.115 37L566.343 0H523.888L545.115 37Z" fill="#9D8F65"/>
<path d="M538.416 25.3195L552.941 0H523.888L538.416 25.3195Z" fill="#29B09F"/>
<path d="M567.56 25.3195L582.084 0H553.032L567.56 25.3195Z" fill="#29B09F"/>
<path d="M552.954 0L559.684 11.6297L538.426 25.3195L552.954 0Z" fill="#5B3F58"/>
<path d="M582.081 0L588.81 11.6128L567.553 25.3195L582.081 0Z" fill="#5B3F58"/>
<path d="M341.341 37L362.568 0H320.113L341.341 37Z" fill="#9D8F65"/>
<path d="M334.638 25.3195L349.166 0H320.113L334.638 25.3195Z" fill="#29B09F"/>
<path d="M349.166 0L355.895 11.6297L334.638 25.3195L349.166 0Z" fill="#5B3F58"/>
<path d="M363.748 25.3195L378.276 0H349.223L363.748 25.3195Z" fill="#29B09F"/>
</g>
<g clip-path="url(#clip6_5_815)">
<path d="M291.084 0H262.015L283.242 37L297.81 11.6128L291.084 0Z" fill="#9D8F65"/>
<path d="M35.7824 11.6297L21.2275 37H50.3373L35.7824 11.6297Z" fill="#F2CCD0"/>
<path d="M64.8952 11.6297L50.3403 37H79.4501L64.8952 11.6297Z" fill="#F2CCD0"/>
<path d="M94.0051 11.6297L79.4502 37H108.56L94.0051 11.6297Z" fill="#F2CCD0"/>
<path d="M123.118 11.6297L108.56 37H137.673L123.118 11.6297Z" fill="#F2CCD0"/>
<path d="M152.228 11.6297L137.673 37H166.783L152.228 11.6297Z" fill="#F2CCD0"/>
<path d="M181.341 11.6297L166.783 37H195.896L181.341 11.6297Z" fill="#F2CCD0"/>
<path d="M210.451 11.6297L195.896 37H225.006L210.451 11.6297Z" fill="#F2CCD0"/>
<path d="M239.561 11.6297L225.006 37H254.116L239.561 11.6297Z" fill="#F2CCD0"/>
<path d="M268.687 11.6128L254.132 36.9831H283.242L268.687 11.6128Z" fill="#F2CCD0"/>
<path d="M297.811 11.6128L283.256 36.9831H312.366L297.811 11.6128Z" fill="#F2CCD0"/>
<path d="M21.2273 37L42.4546 0H0L21.2273 37Z" fill="#9D8F65"/>
<path d="M14.5246 25.3195L29.0526 0H0L14.5246 25.3195Z" fill="#29B09F"/>
<path d="M29.0524 0L35.7819 11.6297L14.5244 25.3195L29.0524 0Z" fill="#5B3F58"/>
<path d="M79.4504 37L100.678 0H58.2231L79.4504 37Z" fill="#9D8F65"/>
<path d="M87.2756 0L94.0051 11.6297L72.7476 25.3195L87.2756 0Z" fill="#5B3F58"/>
<path d="M108.56 37L129.787 0H87.3325L108.56 37Z" fill="#9D8F65"/>
<path d="M101.861 25.3195L116.385 0H87.3325L101.861 25.3195Z" fill="#29B09F"/>
<path d="M116.385 0L123.118 11.6297L101.86 25.3195L116.385 0Z" fill="#5B3F58"/>
<path d="M137.673 37L158.9 0H116.446L137.673 37Z" fill="#9D8F65"/>
<path d="M130.97 25.3195L145.498 0H116.446L130.97 25.3195Z" fill="#29B09F"/>
<path d="M145.498 0L152.228 11.6297L130.97 25.3195L145.498 0Z" fill="#5B3F58"/>
<path d="M166.783 37L188.014 0H145.556L166.783 37Z" fill="#9D8F65"/>
<path d="M160.084 25.3195L174.608 0H145.556L160.084 25.3195Z" fill="#29B09F"/>
<path d="M174.608 0L181.341 11.6297L160.083 25.3195L174.608 0Z" fill="#5B3F58"/>
<path d="M195.896 37L217.124 0H174.669L195.896 37Z" fill="#9D8F65"/>
<path d="M189.194 25.3195L203.718 0H174.669L189.194 25.3195Z" fill="#29B09F"/>
<path d="M203.721 0L210.451 11.6297L189.193 25.3195L203.721 0Z" fill="#5B3F58"/>
<path d="M225.006 37L246.233 0H203.778L225.006 37Z" fill="#9D8F65"/>
<path d="M218.303 25.3195L232.831 0H203.778L218.303 25.3195Z" fill="#29B09F"/>
<path d="M232.831 0L239.56 11.6297L218.303 25.3195L232.831 0Z" fill="#5B3F58"/>
<path d="M254.115 37L275.343 0H232.888L254.115 37Z" fill="#9D8F65"/>
<path d="M247.416 25.3195L261.941 0H232.888L247.416 25.3195Z" fill="#29B09F"/>
<path d="M276.56 25.3195L291.084 0H262.032L276.56 25.3195Z" fill="#29B09F"/>
<path d="M261.954 0L268.684 11.6297L247.426 25.3195L261.954 0Z" fill="#5B3F58"/>
<path d="M291.081 0L297.81 11.6128L276.553 25.3195L291.081 0Z" fill="#5B3F58"/>
<path d="M50.3406 37L71.5678 0H29.1133L50.3406 37Z" fill="#9D8F65"/>
<path d="M43.6379 25.3195L58.1659 0H29.1133L43.6379 25.3195Z" fill="#29B09F"/>
<path d="M58.1657 0L64.8952 11.6297L43.6377 25.3195L58.1657 0Z" fill="#5B3F58"/>
<path d="M72.7478 25.3195L87.2758 0H58.2231L72.7478 25.3195Z" fill="#29B09F"/>
</g>
<defs>
<clipPath id="clip0_5_815">
<rect width="312.365" height="37" fill="white" transform="translate(1164.04)"/>
</clipPath>
<clipPath id="clip1_5_815">
<rect width="312.365" height="37" fill="white" transform="translate(1455)"/>
</clipPath>
<clipPath id="clip2_5_815">
<rect width="312.365" height="37" fill="white" transform="translate(1746)"/>
</clipPath>
<clipPath id="clip3_5_815">
<rect width="312.365" height="37" fill="white" transform="translate(873.02)"/>
</clipPath>
<clipPath id="clip4_5_815">
<rect width="312.365" height="37" fill="white" transform="translate(582)"/>
</clipPath>
<clipPath id="clip5_5_815">
<rect width="312.365" height="37" fill="white" transform="translate(291)"/>
</clipPath>
<clipPath id="clip6_5_815">
<rect width="312.365" height="37" fill="white"/>
</clipPath>
</defs>
</svg>
