<svg width="155" height="30" viewBox="0 0 155 30" fill="none" xmlns="http://www.w3.org/2000/svg">
<g clip-path="url(#clip0_5_2796)">
<path d="M139.853 15.4723C137.223 15.6067 137.174 17.4908 137.174 17.4908L136.466 24.3928L135.759 17.4908C135.759 17.4908 135.708 15.6067 133.08 15.4723L126.872 15.0009L133.08 14.5294C135.708 14.395 135.759 12.511 135.759 12.511L136.466 5.6073L137.174 12.511C137.174 12.511 137.225 14.3933 139.853 14.5294L146.061 15.0009L139.853 15.4723Z" fill="white"/>
<path d="M2.73701 17.0326V29.7726H0V0.00170898H14.9747C17.2656 0.00170898 19.2295 0.179322 20.863 0.532888C22.4982 0.886454 23.8365 1.42095 24.8796 2.13639C25.9228 2.85182 26.6859 3.7432 27.1672 4.8122C27.6485 5.8812 27.89 7.13113 27.89 8.56033C27.89 10.7846 27.2997 12.5658 26.1173 13.902C24.935 15.2383 23.0298 16.1529 20.4035 16.6426L30.6706 29.7726H27.2343L17.5357 16.9447C17.1264 16.9745 16.7105 16.9961 16.2879 17.0094C15.8636 17.0243 15.4259 17.031 14.9747 17.031H2.73701V17.0326ZM25.0876 8.56033C25.0876 7.28882 24.8612 6.25966 24.4084 5.47285C23.9555 4.68604 23.2176 4.07519 22.1946 3.64195C21.1716 3.2087 19.8316 2.91655 18.1729 2.76384C16.5143 2.61279 14.48 2.53643 12.07 2.53643H2.73701V14.4979H11.9845C14.3945 14.4979 16.4321 14.4299 18.0992 14.2921C19.7645 14.1543 21.1162 13.8738 22.1527 13.4472C23.1891 13.0206 23.9388 12.4213 24.3983 11.6495C24.8578 10.8759 25.0876 9.84678 25.0876 8.56033Z" fill="white"/>
<path d="M62.1748 27.7309C60.984 28.0961 59.8771 28.4081 58.8558 28.6671C57.8344 28.9277 56.8282 29.1368 55.8354 29.2995C54.8425 29.4605 53.8312 29.58 52.8032 29.6581C51.7751 29.7344 50.6448 29.7743 49.4104 29.7743C46.546 29.7743 43.9565 29.4306 41.6455 28.7418C39.3345 28.0546 37.3656 27.0686 35.7421 25.7838C34.1187 24.499 32.8659 22.9453 31.9871 21.1194C31.1083 19.2951 30.6689 17.2451 30.6689 14.971C30.6689 12.7666 31.0916 10.7464 31.9351 8.90721C32.7787 7.068 33.9594 5.4894 35.4772 4.16976C36.9949 2.85011 38.8095 1.82593 40.9227 1.09556C43.0358 0.365186 45.3686 0 47.9212 0C50.5726 0 52.934 0.350246 55.0052 1.0524C57.0747 1.75455 58.8206 2.75715 60.2377 4.06352C61.6565 5.36823 62.7332 6.95181 63.4711 8.81093C64.2091 10.6717 64.578 12.7666 64.578 15.0954V15.7478H33.3942C33.5502 17.5455 34.0047 19.1656 34.756 20.6114C35.5074 22.0572 36.5757 23.2856 37.9593 24.2965C39.3429 25.3074 41.0468 26.0826 43.0677 26.6237C45.0902 27.1648 47.4499 27.4337 50.1467 27.4337C51.2955 27.4337 52.4594 27.3574 53.6384 27.2014C54.8157 27.047 55.9444 26.8395 57.0227 26.5805C58.1011 26.3216 59.0872 26.0261 59.9828 25.6958C60.8767 25.3655 61.6079 25.0252 62.1748 24.6749V27.7309V27.7309ZM61.9618 13.4554C61.8628 11.9814 61.5291 10.5738 60.9605 9.23422C60.392 7.89465 59.5451 6.71112 58.4164 5.68694C57.2877 4.66276 55.8538 3.84773 54.1163 3.24517C52.3772 2.64262 50.2959 2.34051 47.8675 2.34051C45.5833 2.34051 43.5809 2.64262 41.8652 3.24517C40.1479 3.84939 38.6921 4.65944 37.5014 5.67698C36.309 6.69452 35.3732 7.87473 34.6923 9.2143C34.0114 10.5555 33.5787 11.9698 33.3942 13.4571H61.9618V13.4554Z" fill="white"/>
<path d="M80.9766 2.47169V29.7726H78.2614V2.47169H64.5797V0.00170898H94.6583V2.47169H80.9766Z" fill="white"/>
<path d="M116.169 2.63437C115.417 2.48331 114.45 2.40695 113.267 2.40695C111.632 2.40695 110.096 2.60615 108.659 3.00287C107.221 3.3996 105.885 3.93907 104.652 4.61633C103.419 5.29524 102.277 6.08703 101.226 6.98837C100.174 7.89138 99.2267 8.84916 98.3798 9.86006V29.8656H95.6428V0.00170898H98.3798V6.82736C99.3575 5.8314 100.419 4.91346 101.565 4.07519C102.71 3.23692 103.918 2.51817 105.187 1.91893C106.457 1.3197 107.788 0.849936 109.182 0.511309C110.579 0.171022 112.021 0.00170898 113.509 0.00170898C114.019 0.00170898 114.48 0.0116686 114.887 0.0349077C115.297 0.0564868 115.672 0.0863657 116.014 0.121224C116.357 0.157743 116.682 0.197581 116.989 0.24074C117.296 0.283898 117.609 0.335356 117.93 0.391794V3.05765C117.509 2.92651 116.92 2.78542 116.169 2.63437Z" fill="white"/>
<path d="M155 15.0009C155 17.5954 154.525 19.8363 153.576 21.722C152.627 23.6076 151.324 25.1647 149.667 26.393C148.01 27.6197 146.056 28.5277 143.804 29.117C141.551 29.7062 139.123 30.0001 136.518 30.0001C133.899 30.0001 131.455 29.7062 129.19 29.117C126.924 28.5277 124.955 27.6197 123.285 26.393C121.614 25.1663 120.304 23.6093 119.355 21.722C118.406 19.8363 117.931 17.5954 117.931 15.0009C117.931 13.2762 118.151 11.7092 118.59 10.2983C119.03 8.889 119.645 7.62579 120.439 6.51197C121.232 5.3965 122.191 4.43374 123.316 3.61871C124.442 2.80534 125.695 2.12809 127.076 1.58861C128.457 1.04913 129.941 0.649084 131.526 0.390134C133.112 0.131184 134.776 0.00170898 136.518 0.00170898C139.125 0.00170898 141.553 0.295517 143.804 0.884794C146.056 1.47407 148.01 2.38206 149.667 3.60875C151.324 4.83544 152.627 6.39246 153.576 8.2798C154.525 10.1671 155 12.4064 155 15.0009ZM152.28 15.0009C152.28 12.9542 151.943 11.1449 151.27 9.57289C150.596 8.00259 149.6 6.67963 148.282 5.60731C146.963 4.53499 145.322 3.72162 143.358 3.1672C141.394 2.61279 139.115 2.33558 136.52 2.33558C133.926 2.33558 131.638 2.61611 129.661 3.17716C127.684 3.73822 126.027 4.55491 124.695 5.62723C123.362 6.69955 122.355 8.02583 121.675 9.60277C120.994 11.1814 120.653 12.9791 120.653 14.9992C120.653 17.0476 120.994 18.8569 121.675 20.4272C122.355 21.9975 123.362 23.3205 124.695 24.3928C126.028 25.4651 127.684 26.2785 129.661 26.8329C131.638 27.3873 133.926 27.6645 136.52 27.6645C139.115 27.6645 141.394 27.3873 143.358 26.8329C145.322 26.2785 146.963 25.4651 148.282 24.3928C149.6 23.3205 150.596 21.9975 151.27 20.4272C151.943 18.8586 152.28 17.0492 152.28 15.0009Z" fill="white"/>
</g>
<defs>
<clipPath id="clip0_5_2796">
<rect width="155" height="30" fill="white"/>
</clipPath>
</defs>
</svg>
