<svg width="85" height="28" viewBox="0 0 85 28" fill="none" xmlns="http://www.w3.org/2000/svg">
<path d="M55.8944 14.2368L42.4904 27.8975L29.0865 14.2368L42.4904 0.576096L55.8944 14.2368ZM42.4904 25.4581L53.52 14.2368L42.5096 3.01551L31.4801 14.2368L42.4904 25.4581Z" fill="#01313B"/>
<path d="M0 13.3391L0 15.0565L31.1545 15.0565V13.3391L0 13.3391Z" fill="#01313B"/>
<path d="M39.5416 14.2368L29.7758 24.1896L20.0101 14.2368L29.7758 4.28402L39.5416 14.2368ZM29.7758 21.7502L37.1671 14.2368L29.795 6.72344L22.4037 14.2368L29.7758 21.7502Z" fill="#01313B"/>
<path d="M53.8455 13.3391V15.0565L85 15.0565V13.3391L53.8455 13.3391Z" fill="#01313B"/>
<path d="M64.9707 14.2368L55.205 24.1896L45.4393 14.2368L55.205 4.28402L64.9707 14.2368ZM55.205 21.7502L62.5963 14.2368L55.2242 6.72344L47.8329 14.2368L55.205 21.7502Z" fill="#01313B"/>
</svg>
